<?xml version="1.0" standalone="no"?>
<!DOCTYPE svg PUBLIC "-//W3C//DTD SVG 20010904//EN"
 "http://www.w3.org/TR/2001/REC-SVG-20010904/DTD/svg10.dtd">
<svg version="1.0" xmlns="http://www.w3.org/2000/svg"
 width="532.000000pt" height="533.000000pt" viewBox="0 0 532.000000 533.000000"
 preserveAspectRatio="xMidYMid meet">

<g transform="translate(0.000000,533.000000) scale(0.100000,-0.100000)"
fill="#000000" stroke="none">
<path d="M3659 4425 c-274 -466 -444 -953 -519 -1485 -25 -181 -30 -238 -40
-490 -10 -244 -19 -291 -84 -425 -52 -108 -115 -193 -189 -257 -239 -206 -545
-262 -835 -152 -231 87 -423 300 -494 550 -30 109 -31 303 0 415 66 243 251
452 480 545 114 46 180 58 312 57 105 0 139 -5 213 -27 86 -26 169 -63 234
-107 39 -25 33 -38 67 146 14 77 28 154 32 172 6 30 4 33 -45 57 -310 158
-693 160 -1017 6 -167 -80 -367 -255 -469 -410 -409 -627 -146 -1457 550
-1733 132 -52 267 -77 422 -77 145 0 214 9 339 46 407 118 722 463 809 888 9
47 19 174 25 320 15 382 54 636 145 951 37 126 108 328 141 401 5 10 7 181 4
379 l-5 360 -76 -130z"/>
<path d="M2085 4259 c-22 -4 -62 -10 -90 -13 -27 -3 -57 -7 -65 -9 -8 -2 -33
-7 -55 -11 -22 -4 -92 -24 -155 -43 -626 -192 -1103 -691 -1275 -1336 -54
-199 -73 -514 -45 -717 83 -594 427 -1107 940 -1400 500 -285 1117 -326 1645
-109 l120 49 0 198 0 198 -59 -34 c-182 -107 -422 -178 -671 -198 -187 -15
-465 32 -659 110 -422 170 -757 529 -894 956 -125 393 -95 793 89 1162 207
417 593 715 1060 820 91 20 130 23 319 23 146 0 234 -4 275 -14 106 -24 268
-73 324 -97 30 -13 55 -23 56 -22 1 2 22 59 48 128 25 69 52 140 59 158 15 40
16 39 -97 83 -101 40 -274 85 -401 105 -104 16 -401 25 -469 13z"/>
</g>
</svg>
